<svg version="1.1" id="Layer_1" xmlns:x="ns_extend;" xmlns:i="ns_ai;" xmlns:graph="ns_graphs;" xmlns="http://www.w3.org/2000/svg" xmlns:xlink="http://www.w3.org/1999/xlink" x="0px" y="0px" viewBox="0 0 44.3 43" style="enable-background:new 0 0 44.3 43;" xml:space="preserve">
 <style type="text/css">
  .st0{fill:#CC0000;}
 </style>
 <metadata>
  <sfw xmlns="ns_sfw;">
   <slices>
   </slices>
   <sliceSourceBounds bottomLeftOrigin="true" height="43" width="44.3" x="-7.7" y="-0.3">
   </sliceSourceBounds>
  </sfw>
 </metadata>
 <g>
  <path class="st0" d="M41.8,13.5V8.2h-8.6l-1.1,5.4h3.1l-1,5h-3.1l-1.1,5.4c-0.1,0.4-0.1,0.6-0.2,0.9c-0.3,1.7,0.5,1.6,2.8,1.6
		l-1.1,5.3h-4c-3.8,0-6.9,0-6.1-4c0.1-0.6,0.3-1.2,0.4-1.8l1.4-7.4h-3l1-5h3l1.1-5.4h-2.8V0H12.3v16.6H0c0.3,4.3,4.1,4.9,5.5,8
		c1,2.1,1.8,5.8,4.6,5.8c2.1,0,2.1-2.8,4.9-2.8c2.7,0,4,5.2,6.4,9.5c1.8,3.4,4.9,5.6,7.6,5.8c2.3,0.2,3.4-0.6,3.4-0.6
		c-0.6-1.2-0.9-2.5-0.9-4.3c0-2.8,2.1-5.5,4.6-7.4c3.4-2.5,7-3.4,8.2-3.7v-8.6C44.3,18.4,41.8,17.1,41.8,13.5z M27.8,26.4l3.6-18.2
		h-4.2l-3.6,18.2H27.8z M32.5,2.4h-4.2l-0.8,4h4.2L32.5,2.4z">
  </path>
 </g>
</svg>